<svg version="1.1" id="Layer_1" xmlns="http://www.w3.org/2000/svg" xmlns:xlink="http://www.w3.org/1999/xlink" x="0px" y="0px"
	 width="100%" viewBox="0 0 96 96" enable-background="new 0 0 96 96" xml:space="preserve">
<path fill="#000000" opacity="1.000000" stroke="none" 
	d="
M62.000000,97.000000 
	C41.333332,97.000000 21.166666,97.000000 1.000000,97.000000 
	C1.000000,65.000000 1.000000,33.000000 1.000000,1.000000 
	C33.000000,1.000000 65.000000,1.000000 97.000000,1.000000 
	C97.000000,33.000000 97.000000,65.000000 97.000000,97.000000 
	C85.500000,97.000000 74.000000,97.000000 62.000000,97.000000 
M33.078526,17.039515 
	C29.380913,17.085115 25.683298,17.130716 21.073265,17.050983 
	C20.242836,17.040243 19.411613,17.000481 18.582102,17.023190 
	C8.791056,17.291235 8.631423,14.563020 9.013309,27.917500 
	C9.064305,32.609947 9.115301,37.302399 9.013715,42.905785 
	C9.064366,46.601448 9.115018,50.297108 9.012186,54.908978 
	C9.063865,58.937347 9.115543,62.965717 9.016694,67.892487 
	C9.066563,70.926567 9.116431,73.960640 9.017142,77.822311 
	C10.251780,78.881935 11.398521,80.696877 12.738322,80.852791 
	C16.110588,81.245216 19.569962,80.889061 23.911112,80.982010 
	C27.939402,80.932426 31.967693,80.882835 36.918434,80.980820 
	C41.610336,80.931366 46.302235,80.881920 51.921768,80.980919 
	C62.751957,80.986824 73.583755,80.889496 84.411392,81.058678 
	C87.864693,81.112633 89.175201,80.010956 89.057640,76.473656 
	C88.808777,68.986198 88.888229,61.487827 88.970192,53.094536 
	C88.924469,50.061577 88.878754,47.028618 88.972878,43.088604 
	C88.926537,39.723465 88.880196,36.358322 88.972176,32.150177 
	C88.927284,30.445299 88.882385,28.740423 88.949760,26.139505 
	C88.962036,25.142223 88.864578,24.129175 89.005203,23.150333 
	C89.685844,18.412825 87.848984,16.404726 82.947090,16.944929 
	C79.659714,17.307205 76.310890,17.111908 72.067833,17.047585 
	C67.708580,17.087540 63.349323,17.127495 58.071674,17.044748 
	C54.045513,17.085291 50.019348,17.125835 45.079689,17.040966 
	C41.383720,17.082743 37.687756,17.124521 33.078526,17.039515 
z"/>
<path fill="#46B0D0" opacity="1.000000" stroke="none" 
	d="
M88.833031,53.993931 
	C88.888229,61.487827 88.808777,68.986198 89.057640,76.473656 
	C89.175201,80.010956 87.864693,81.112633 84.411392,81.058678 
	C73.583755,80.889496 62.751957,80.986824 51.530792,80.578964 
	C56.795391,75.776756 62.450970,71.376495 68.376587,67.111740 
	C69.473122,67.576897 70.827705,68.398155 71.047035,68.162560 
	C74.428467,64.530342 77.662323,60.760738 81.285110,56.960136 
	C84.037537,55.929474 86.435287,54.961704 88.833031,53.993931 
z"/>
<path fill="#4DB6D5" opacity="1.000000" stroke="none" 
	d="
M68.106544,66.976234 
	C62.450970,71.376495 56.795391,75.776756 51.066975,80.504745 
	C46.302235,80.881920 41.610336,80.931366 36.530251,80.579346 
	C37.250149,79.021355 38.270321,77.761826 39.482613,76.727448 
	C43.278851,73.488388 47.147541,70.334236 51.427971,67.097488 
	C55.283695,66.794762 59.935345,68.309845 59.467720,61.971733 
	C62.933689,60.094322 66.067818,58.275158 69.142807,56.361008 
	C75.722427,52.265270 82.271477,48.120407 88.833038,43.995659 
	C88.878754,47.028618 88.924469,50.061577 88.901611,53.544235 
	C86.435287,54.961704 84.037537,55.929474 80.966576,56.804871 
	C78.884460,56.929901 77.157959,56.707676 76.128990,57.451015 
	C73.528679,59.329506 71.910942,63.282986 67.618141,60.808918 
	C67.052803,61.983532 66.049347,63.163830 66.064491,64.330917 
	C66.076042,65.221375 67.378410,66.095078 68.106544,66.976234 
z"/>
<path fill="#5CC0DE" opacity="1.000000" stroke="none" 
	d="
M88.837486,27.035545 
	C88.882385,28.740423 88.927284,30.445299 88.572998,32.645309 
	C85.770889,34.430527 83.367973,35.720612 80.654480,36.848885 
	C78.805298,37.065872 76.979370,37.046501 75.787872,37.906315 
	C73.302422,39.699879 71.755981,43.273609 67.602119,41.237438 
	C67.264862,41.072121 65.911949,42.978756 64.961502,44.265705 
	C63.499477,45.923466 62.191349,47.344028 60.699100,48.533627 
	C55.502163,52.676552 50.241467,56.739491 44.548756,60.882427 
	C40.727074,60.901520 37.361641,60.871021 34.071926,60.517342 
	C37.585522,57.472191 41.093319,54.832447 44.431862,51.993656 
	C46.107903,50.568501 47.475986,48.781174 49.435627,47.105049 
	C59.070789,46.888805 59.070789,46.888805 59.178959,41.056843 
	C64.667381,37.821198 69.853142,34.737671 74.832497,31.350710 
	C76.200829,30.419970 76.952042,28.581959 78.439011,27.102283 
	C82.206894,27.041384 85.522186,27.038465 88.837486,27.035545 
z"/>
<path fill="#73D1EC" opacity="1.000000" stroke="none" 
	d="
M9.165670,53.992771 
	C9.115018,50.297108 9.064366,46.601448 9.428757,42.384560 
	C14.188482,39.150944 18.656013,36.612495 22.832945,33.662571 
	C25.444469,31.818201 27.618122,29.353825 30.362762,27.104006 
	C31.492887,26.969500 32.248505,26.898645 33.454632,26.884293 
	C36.930058,27.011869 39.954979,27.082943 42.915024,27.482420 
	C39.936768,30.302917 36.950371,32.715950 34.135944,35.315189 
	C32.291065,37.019012 30.694912,38.992142 28.536438,40.893051 
	C18.987558,41.092400 18.987558,41.092400 19.028263,47.143143 
	C15.689898,49.662189 12.427784,51.827480 9.165670,53.992771 
z"/>
<path fill="#53BAD9" opacity="1.000000" stroke="none" 
	d="
M80.965050,37.010696 
	C83.367973,35.720612 85.770889,34.430527 88.503830,33.066811 
	C88.880196,36.358322 88.926537,39.723465 88.902954,43.542133 
	C82.271477,48.120407 75.722427,52.265270 69.142807,56.361008 
	C66.067818,58.275158 62.933689,60.094322 59.195839,61.727524 
	C57.374413,61.276524 56.183510,61.054535 55.065899,60.507641 
	C57.153271,58.292770 59.122669,56.352158 61.192772,54.525684 
	C63.768211,52.253342 66.426819,50.075260 69.411255,47.890030 
	C73.503693,44.285957 77.234367,40.648327 80.965050,37.010696 
z"/>
<path fill="#69CAE6" opacity="1.000000" stroke="none" 
	d="
M9.088928,54.450874 
	C12.427784,51.827480 15.689898,49.662189 19.485226,47.197163 
	C25.339056,46.985409 30.659676,47.073387 35.910561,47.485863 
	C32.675182,50.343472 29.440628,52.796486 26.369070,55.438961 
	C24.449446,57.090427 22.775511,59.027481 20.676174,60.933163 
	C19.851221,61.682224 19.341425,62.334499 18.472586,63.008591 
	C15.131436,64.351631 12.149329,65.672859 9.167221,66.994087 
	C9.115543,62.965717 9.063865,58.937347 9.088928,54.450874 
z"/>
<path fill="#5ABFDD" opacity="1.000000" stroke="none" 
	d="
M22.994419,80.832993 
	C19.569962,80.889061 16.110588,81.245216 12.738322,80.852791 
	C11.398521,80.696877 10.251780,78.881935 9.452147,77.390717 
	C15.150110,74.891090 20.297709,72.668884 23.449797,67.102982 
	C28.605125,67.082405 33.296005,67.117744 37.914757,67.480881 
	C35.312195,69.822746 32.700714,71.744545 30.273714,73.876366 
	C27.754284,76.089363 25.413391,78.505623 22.994419,80.832993 
z"/>
<path fill="#7AD6F1" opacity="1.000000" stroke="none" 
	d="
M29.988256,27.167658 
	C27.618122,29.353825 25.444469,31.818201 22.832945,33.662571 
	C18.656013,36.612495 14.188482,39.150944 9.505049,41.929092 
	C9.115301,37.302399 9.064305,32.609947 9.540252,27.457222 
	C13.711213,26.944109 17.355232,26.891273 21.446474,26.894262 
	C24.591885,27.022610 27.290070,27.095135 29.988256,27.167658 
z"/>
<path fill="#53BAD9" opacity="1.000000" stroke="none" 
	d="
M23.452766,80.907501 
	C25.413391,78.505623 27.754284,76.089363 30.273714,73.876366 
	C32.700714,71.744545 35.312195,69.822746 38.376549,67.427811 
	C42.936363,67.080368 46.962261,67.113777 50.988159,67.147179 
	C47.147541,70.334236 43.278851,73.488388 39.482613,76.727448 
	C38.270321,77.761826 37.250149,79.021355 36.069027,80.505554 
	C31.967693,80.882835 27.939402,80.932426 23.452766,80.907501 
z"/>
<path fill="#0A5CA7" opacity="1.000000" stroke="none" 
	d="
M88.893623,26.587524 
	C85.522186,27.038465 82.206894,27.041384 78.014511,27.048187 
	C75.427544,26.979322 73.717674,26.906572 72.007019,26.425615 
	C72.334015,23.066967 72.661789,20.116529 72.989555,17.166090 
	C76.310890,17.111908 79.659714,17.307205 82.947090,16.944929 
	C87.848984,16.404726 89.685844,18.412825 89.005203,23.150333 
	C88.864578,24.129175 88.962036,25.142223 88.893623,26.587524 
z"/>
<path fill="#0862B0" opacity="1.000000" stroke="none" 
	d="
M72.528694,17.106838 
	C72.661789,20.116529 72.334015,23.066967 71.590767,26.484001 
	C69.778030,27.024479 68.380768,27.098360 66.533340,27.118267 
	C63.057487,26.986870 60.031811,26.909449 57.028351,26.448593 
	C57.697071,23.099255 58.343571,20.133352 58.990067,17.167448 
	C63.349323,17.127495 67.708580,17.087540 72.528694,17.106838 
z"/>
<path fill="#0667B8" opacity="1.000000" stroke="none" 
	d="
M58.530869,17.106098 
	C58.343571,20.133352 57.697071,23.099255 56.570374,26.506924 
	C52.395199,26.904661 48.700222,26.860632 45.005085,26.409576 
	C45.334351,23.057161 45.663769,20.111769 45.993187,17.166378 
	C50.019348,17.125835 54.045513,17.085291 58.530869,17.106098 
z"/>
<path fill="#0078D4" opacity="1.000000" stroke="none" 
	d="
M20.999249,26.838440 
	C17.355232,26.891273 13.711213,26.944109 9.617615,26.996502 
	C8.631423,14.563020 8.791056,17.291235 18.582102,17.023190 
	C19.411613,17.000481 20.242836,17.040243 21.525093,17.515543 
	C21.651031,20.932882 21.325140,23.885660 20.999249,26.838440 
z"/>
<path fill="#0370C7" opacity="1.000000" stroke="none" 
	d="
M21.446472,26.894262 
	C21.325140,23.885660 21.651031,20.932882 21.981304,17.578209 
	C25.683298,17.130716 29.380913,17.085115 33.535999,17.510870 
	C33.663689,20.930748 33.333908,23.879269 33.004124,26.827791 
	C32.248505,26.898645 31.492887,26.969500 30.362762,27.104006 
	C27.290070,27.095135 24.591885,27.022610 21.446472,26.894262 
z"/>
<path fill="#046BBF" opacity="1.000000" stroke="none" 
	d="
M33.454632,26.884293 
	C33.333908,23.879269 33.663689,20.930748 33.992630,17.574261 
	C37.687756,17.124521 41.383720,17.082743 45.536438,17.103672 
	C45.663769,20.111769 45.334351,23.057161 44.668480,26.472683 
	C43.881321,27.013214 43.430607,27.083614 42.979897,27.154016 
	C39.954979,27.082943 36.930058,27.011869 33.454632,26.884293 
z"/>
<path fill="#62C5E2" opacity="1.000000" stroke="none" 
	d="
M22.985348,67.158897 
	C20.297709,72.668884 15.150110,74.891090 9.526726,76.976913 
	C9.116431,73.960640 9.066563,70.926567 9.091958,67.443283 
	C12.149329,65.672859 15.131436,64.351631 18.533222,63.398781 
	C18.692495,66.805389 20.737789,67.102379 22.985348,67.158897 
z"/>
<path fill="#195287" opacity="1.000000" stroke="none" 
	d="
M68.376587,67.111740 
	C67.378410,66.095078 66.076042,65.221375 66.064491,64.330917 
	C66.049347,63.163830 67.052803,61.983532 67.618141,60.808918 
	C71.910942,63.282986 73.528679,59.329506 76.128990,57.451015 
	C77.157959,56.707676 78.884460,56.929901 80.611893,56.867756 
	C77.662323,60.760738 74.428467,64.530342 71.047035,68.162560 
	C70.827705,68.398155 69.473122,67.576897 68.376587,67.111740 
z"/>
<path fill="#0078D4" opacity="1.000000" stroke="none" 
	d="
M23.449797,67.102982 
	C20.737789,67.102379 18.692495,66.805389 18.892265,63.376968 
	C19.341425,62.334499 19.851221,61.682224 21.136871,60.991081 
	C25.940554,60.914989 29.968382,60.877758 33.996212,60.840527 
	C37.361641,60.871021 40.727074,60.901520 44.999557,60.935528 
	C48.935276,60.903542 51.963940,60.868046 54.992607,60.832542 
	C56.183510,61.054535 57.374413,61.276524 58.837196,61.742722 
	C59.935345,68.309845 55.283695,66.794762 51.427971,67.097488 
	C46.962261,67.113777 42.936363,67.080368 38.448677,67.100021 
	C33.296005,67.117744 28.605125,67.082405 23.449797,67.102982 
z"/>
<path fill="#0078D4" opacity="1.000000" stroke="none" 
	d="
M35.980293,47.161369 
	C30.659676,47.073387 25.339056,46.985409 19.561478,46.843407 
	C18.987558,41.092400 18.987558,41.092400 29.002605,40.953529 
	C37.277508,40.920368 44.635319,40.875122 52.418839,40.886101 
	C54.829189,40.993073 56.813835,41.043816 58.798477,41.094563 
	C59.070789,46.888805 59.070789,46.888805 48.975945,47.055233 
	C44.036083,47.092457 40.008190,47.126915 35.980293,47.161369 
z"/>
<path fill="#62C5E2" opacity="1.000000" stroke="none" 
	d="
M35.910561,47.485870 
	C40.008190,47.126915 44.036083,47.092457 48.523659,47.107819 
	C47.475986,48.781174 46.107903,50.568501 44.431862,51.993656 
	C41.093319,54.832447 37.585522,57.472191 34.071926,60.517342 
	C29.968382,60.877758 25.940554,60.914989 21.452026,60.894302 
	C22.775511,59.027481 24.449446,57.090427 26.369070,55.438961 
	C29.440628,52.796486 32.675182,50.343472 35.910561,47.485870 
z"/>
<path fill="#62C5E2" opacity="1.000000" stroke="none" 
	d="
M59.178959,41.056843 
	C56.813835,41.043816 54.829189,40.993073 52.493057,40.560425 
	C53.786179,38.646557 55.388142,37.065453 57.084507,35.593117 
	C60.355988,32.753685 63.680809,29.975700 66.983513,27.172241 
	C68.380768,27.098360 69.778030,27.024479 71.591537,26.892212 
	C73.717674,26.906572 75.427544,26.979322 77.561920,27.106169 
	C76.952042,28.581959 76.200829,30.419970 74.832497,31.350710 
	C69.853142,34.737671 64.667381,37.821198 59.178959,41.056843 
z"/>
<path fill="#5ABFDD" opacity="1.000000" stroke="none" 
	d="
M55.065899,60.507645 
	C51.963940,60.868046 48.935276,60.903542 45.455811,60.885937 
	C50.241467,56.739491 55.502163,52.676552 60.699100,48.533627 
	C62.191349,47.344028 63.499477,45.923466 65.245018,44.409569 
	C66.748505,45.425713 67.899010,46.641094 69.049507,47.856476 
	C66.426819,50.075260 63.768211,52.253342 61.192772,54.525684 
	C59.122669,56.352158 57.153271,58.292770 55.065899,60.507645 
z"/>
<path fill="#195287" opacity="1.000000" stroke="none" 
	d="
M69.411255,47.890030 
	C67.899010,46.641094 66.748505,45.425713 65.314499,44.066471 
	C65.911949,42.978756 67.264862,41.072121 67.602119,41.237438 
	C71.755981,43.273609 73.302422,39.699879 75.787872,37.906315 
	C76.979370,37.046501 78.805298,37.065872 80.654480,36.848885 
	C77.234367,40.648327 73.503693,44.285957 69.411255,47.890030 
z"/>
<path fill="#69CAE6" opacity="1.000000" stroke="none" 
	d="
M66.533340,27.118265 
	C63.680809,29.975700 60.355988,32.753685 57.084507,35.593117 
	C55.388142,37.065453 53.786179,38.646557 52.067348,40.504196 
	C44.635319,40.875122 37.277508,40.920368 29.453529,40.905136 
	C30.694912,38.992142 32.291065,37.019012 34.135944,35.315189 
	C36.950371,32.715950 39.936768,30.302917 42.915024,27.482420 
	C43.430607,27.083614 43.881321,27.013214 44.668636,26.879707 
	C48.700222,26.860632 52.395199,26.904661 56.548157,26.890360 
	C60.031811,26.909449 63.057487,26.986870 66.533340,27.118265 
z"/>
</svg>